<svg width="100%" height="100%" viewBox="0 0 284 28" version="1.1" xmlns="http://www.w3.org/2000/svg" xmlns:xlink="http://www.w3.org/1999/xlink" xml:space="preserve" xmlns:serif="http://www.serif.com/" style="fill-rule:evenodd;clip-rule:evenodd;stroke-linejoin:round;stroke-miterlimit:2;">
            <g>
              <g transform="matrix(1.0632,0,0,1.0889,-18.0743,-9.80006)">
                <rect x="17" y="9" width="269" height="25" style="fill:white;"></rect>
              </g>
              <path d="M283.5,9.7C283.5,9.7 276.2,14 269.5,14.3C262.7,14.6 256.9,14.3 248.6,12.8C237.3,10.8 215.5,2.7 203.9,7.1C192.3,11.5 191.8,11.7 185.9,14.5C179.3,17.7 165.9,24.1 149.3,23.8C131.6,23.5 99.5,7.2 86.3,8C84.9,8.1 79.7,8.8 75.8,10C72,11.2 66.4,13.8 58.8,14.7C55.6,15.1 50.5,15.8 44.6,15.6C43.1,15.5 38.3,15.2 32.6,14C26.9,12.8 21.6,10.9 16.8,10.3C6.5,9.2 0,10.8 0,10.8L0,0L283.5,0L283.5,9.7ZM260.8,11.3C260.1,10.3 258.8,10.9 256.5,10.9C254.2,10.9 250.4,9.7 250.7,9.8C251,9.9 253.8,11.3 256.7,11.7C259.7,12.2 261.4,12.3 260.8,11.3ZM242.4,8.6C242.4,8.6 240,8.4 236.8,7.7C233.6,6.9 226.5,4.9 221.7,4.2C213.5,3.1 205.9,4.2 206.6,4.3C207.4,4.4 216.2,3.7 224.2,5.4C227.5,6.1 233.5,7.6 236.6,8.1C239.9,8.7 242.4,8.6 242.4,8.6ZM185.2,8.5C186.9,7.8 171.9,13.2 166.7,14.6C164.6,15.2 160.5,16.2 156.7,16.6C152.8,17 147.8,17 147.9,17.1C147.9,17.3 153.7,17.9 159.1,17.1C164.5,16.3 164.3,16 166.7,15.5C170.5,14.7 183.5,9.2 185.2,8.5ZM199.1,6.9C199.3,6.9 198.3,6.5 194.3,8C190.3,9.5 187.6,11.5 187.4,11.7C187.2,11.8 190.9,9.9 194,8.7C197,7.5 199,6.9 199.1,6.9ZM283,6C282.9,6.1 281.1,7.1 278.2,8.5C275.3,9.9 271.3,11.3 271.5,11.2C271.7,11.2 275,10.6 278.9,8.7C282.8,6.8 283.1,5.9 283,6ZM31.3,11.6C31.4,11.4 29.4,11.4 26.8,10.4C24.2,9.4 21.4,8.8 19,8.4C15,7.6 7.3,8.5 7.7,8.6C8,8.7 15.9,8.3 20.2,9.3C22.4,9.8 22.6,9.8 25.9,10.9C29.2,12 31.2,11.9 31.3,11.6ZM73,9.2C73.4,9.1 76.5,7.6 81.4,6.6C86.3,5.5 90.3,6.1 90.3,5.8C90.3,5.5 89.3,4.9 84.1,5.5C78.9,6.1 72.6,9.3 73,9.2ZM71.6,6.7C71.8,6.8 75,5.4 77.3,5C79.6,4.7 79.2,4.5 79.2,4.4C79.2,4.3 78.1,4.2 76.5,4.6C74.8,5.1 71.4,6.6 71.6,6.7ZM93.6,4.4C93.7,4.6 97.1,5.2 99.2,6.2C101.3,7.2 101,6.8 101.1,6.7C101.2,6.6 100.3,5.9 98.7,5.4C97.1,4.8 93.5,4.2 93.6,4.4ZM65.4,11.1C65.3,11.4 65.7,11.6 67.3,10.9C68.9,10.2 69.9,9.6 69.5,9.7C69.1,9.8 68.6,10.1 67,10.5C65.3,10.9 65.5,10.8 65.4,11.1ZM34.5,12.4C34.3,12.4 36.6,13.2 37.8,13.3C39,13.4 39.8,13.4 39.8,13.1C39.8,12.8 39.7,12.6 38.2,12.7C36.6,12.8 34.7,12.4 34.5,12.4ZM152.2,21.1C152.1,21.2 149.8,20.8 144.7,20.8C139.7,20.8 131.1,18.4 127.5,17.3C123.9,16.2 137.5,21.2 144,21.4C150.5,21.6 152.3,21 152.2,21.1Z" style="fill-rule:nonzero;"></path>
              <path d="M269.6,18C269.5,17.9 265,18.3 262.4,18C255.1,17.3 245.4,14.8 245.8,15.1C246.2,15.4 259.5,18.2 262.8,18.4C267.7,18.8 269.7,18 269.6,18Z" style="fill-rule:nonzero;"></path>
              <path d="M227.4,9.8C227.2,9.7 222.9,8.8 217.9,8.6C212.9,8.4 205.2,9.2 205.6,9.1C205.9,9 211.5,7.3 218.9,7.9C226.3,8.5 227.6,9.9 227.4,9.8Z" style="fill-rule:nonzero;"></path>
              <path d="M204.5,13.4C204.4,13.3 206.5,12.4 207.7,12.3C208.9,12.2 209.7,12.3 209.7,12.6C209.7,12.9 209.6,13.1 208.1,13C206.4,12.9 204.6,13.5 204.5,13.4Z" style="fill-rule:nonzero;"></path>
              <path d="M201,10.6C201,10.5 196.6,11.8 194.7,12.8C192.8,13.7 188.5,15.9 188.6,15.9C188.7,16 192.8,14.3 194.9,13.3C197,12.3 201,10.7 201,10.6Z" style="fill-rule:nonzero;"></path>
              <path d="M154.5,26.7C154.4,26.6 149.9,27 147.3,26.7C140,26 130.3,23.5 130.7,23.8C131.1,24.1 144.4,26.9 147.7,27.1C152.6,27.5 154.6,26.8 154.5,26.7Z" style="fill-rule:nonzero;"></path>
              <path d="M41.9,19.3C41.9,19.3 43.1,19 44.8,19.2C46.5,19.4 50.6,20.1 53,19.9C57.2,19.5 60.4,17.2 60,17.3C59.6,17.3 55.7,19.5 51.4,19.2C49.6,19.1 46.3,18.7 44.7,18.8C43.1,18.9 41.9,19.3 41.9,19.3Z" style="fill-rule:nonzero;"></path>
              <path d="M75.5,12.6C75.7,12.7 77.5,11.8 79.8,11.5C82.1,11.3 81.9,11.2 81.9,11C81.9,10.9 80.1,10.6 78.5,11C76.9,11.5 75.3,12.5 75.5,12.6Z" style="fill-rule:nonzero;"></path>
              <path d="M15.6,13.2C15.6,13.1 19.9,13.2 22.3,13.7C24.7,14.2 27.3,15.6 27.3,15.7C27.3,15.8 24.6,14.9 22.2,14.3C19.9,13.7 15.7,13.3 15.6,13.2Z" style="fill-rule:nonzero;"></path>
            </g>
          </svg>